<svg id="LOGOS" xmlns="http://www.w3.org/2000/svg" viewBox="0 0 374 132"><defs><style>.cls-1{fill:#14c6cb;}</style></defs><path d="M125.35,41.45V35.79h-5.18v5.66h-2.64V27.86h2.64v5.7h5.18v-5.7H128V41.45Zm12.32,0h-2.09l-.19-.67a5.71,5.71,0,0,1-3,.87c-1.87,0-2.66-1.23-2.66-2.92,0-2,.9-2.76,3-2.76h2.45V35c0-1.09-.31-1.47-1.94-1.47a14.85,14.85,0,0,0-2.83.3L130,31.91a14,14,0,0,1,3.5-.46c3.21,0,4.15,1.08,4.15,3.54Zm-2.56-3.71h-1.88c-.84,0-1.07.23-1.07,1s.23,1,1,1a4,4,0,0,0,1.92-.51ZM143,41.65a12.53,12.53,0,0,1-3.52-.56l.35-1.88a11.5,11.5,0,0,0,3,.43c1.13,0,1.3-.25,1.3-1s-.12-.91-1.78-1.29c-2.49-.58-2.79-1.18-2.79-3.08s.9-2.83,3.82-2.83a14.07,14.07,0,0,1,3.06.34l-.26,2a18.71,18.71,0,0,0-2.8-.28c-1.11,0-1.3.24-1.3.84,0,.79.06.85,1.44,1.19,2.85.73,3.13,1.09,3.13,3.1S146.11,41.65,143,41.65Zm11.7-.2V34.61c0-.53-.23-.79-.82-.79a7.23,7.23,0,0,0-2.66.83v6.8H148.7V27.67l2.55.38v4.34a9.34,9.34,0,0,1,3.73-.94c1.7,0,2.31,1.14,2.31,2.89v7.11Zm4.71-11.19v-2.4H162v2.4Zm0,11.19v-9.8H162v9.8Zm4.6-9.72c0-2.46,1.48-3.89,5-3.89a16.62,16.62,0,0,1,3.8.45l-.3,2.19a21.49,21.49,0,0,0-3.41-.34c-1.83,0-2.41.6-2.41,2v5.15c0,1.43.58,2,2.41,2A21.49,21.49,0,0,0,172.5,39l.3,2.2a16.63,16.63,0,0,1-3.8.44c-3.48,0-5-1.43-5-3.89Zm14.4,9.92c-3.5,0-4.44-1.85-4.44-3.87V35.31c0-2,.94-3.86,4.44-3.86s4.45,1.85,4.45,3.86v2.47C182.89,39.8,181.94,41.65,178.44,41.65Zm0-8.11c-1.36,0-1.88.58-1.88,1.69v2.64c0,1.1.52,1.69,1.88,1.69s1.89-.59,1.89-1.69V35.23C180.33,34.12,179.81,33.54,178.44,33.54Zm11.65.16a20.64,20.64,0,0,0-2.71,1.43v6.32h-2.55v-9.8H187l.17,1.08a11.63,11.63,0,0,1,2.69-1.28Zm10.22,4.49c0,2.17-1,3.46-3.38,3.46a14.74,14.74,0,0,1-2.72-.28v4l-2.56.38V31.65h2l.26.82a5.54,5.54,0,0,1,3.22-1c2.06,0,3.15,1.16,3.15,3.4Zm-6.1,1.1a11.84,11.84,0,0,0,2.26.27c.92,0,1.28-.43,1.28-1.31V34.79c0-.81-.31-1.25-1.26-1.25a3.68,3.68,0,0,0-2.28.88Z"/><path d="M157.47,82.55l7.68-31.21h7.56l-10,40.29H152.45l-7.38-32.42-7.38,32.42H127.41l-10-40.29H125l7.68,31.21L140,51.34h10.16Z"/><path d="M195.45,91.63h-6l-.54-2a16.15,16.15,0,0,1-8.77,2.6c-5.39,0-7.68-3.69-7.68-8.77,0-6,2.6-8.29,8.58-8.29h7.08V72.09c0-3.27-.91-4.42-5.62-4.42a41.48,41.48,0,0,0-8.17.91L173.37,63a38.38,38.38,0,0,1,10.1-1.39c9.26,0,12,3.26,12,10.64ZM188.07,80.5h-5.44c-2.42,0-3.09.66-3.09,2.9,0,2.06.67,3,3,3a11.57,11.57,0,0,0,5.56-1.51Z"/><path d="M216.13,91.63l-3.93,11.91h-7l3.69-11.91h-2.61L197,62.17h7.56l6.71,22.38L218,62.17h7.56Z"/><path d="M252.36,81.83c0,6.53-2.9,10.4-9.74,10.4a40.19,40.19,0,0,1-7.86-.85v12.16l-7.38,1V62.17h5.87l.72,2.48a15.57,15.57,0,0,1,9.32-3.08c5.93,0,9.07,3.5,9.07,10.22Zm-17.6,3.33a33.05,33.05,0,0,0,6.53.78C244,85.94,245,84.67,245,82V71.61c0-2.42-.9-3.75-3.63-3.75a10.43,10.43,0,0,0-6.59,2.66Z"/><path d="M268.69,92.23c-10.1,0-12.82-5.56-12.82-11.61V73.18c0-6.05,2.72-11.61,12.82-11.61s12.82,5.56,12.82,11.61v7.44C281.51,86.67,278.79,92.23,268.69,92.23Zm0-24.37c-3.93,0-5.44,1.75-5.44,5.08v7.92c0,3.33,1.51,5.08,5.44,5.08s5.44-1.75,5.44-5.08V72.94C274.13,69.61,272.62,67.86,268.69,67.86Z"/><path d="M286,58V49.47h7.37V58Zm0,33.63V62.17h7.37V91.63Z"/><path d="M316.83,91.63V71.06c0-1.57-.66-2.36-2.36-2.36s-5,1.09-7.68,2.48V91.63h-7.38V62.17H305l.72,2.48a29.59,29.59,0,0,1,11.8-3.08c4.9,0,6.65,3.44,6.65,8.71V91.63Z"/><path d="M345.62,91.08a20.34,20.34,0,0,1-6.47,1.15c-5.39,0-8.11-2.54-8.11-7.8V68h-4.41V62.17H331V54.85l7.38-1v8.35H346L345.5,68h-7.08V83.46a2.33,2.33,0,0,0,2.66,2.6,14.3,14.3,0,0,0,3.69-.6Z"/><polygon class="cls-1" points="102.72 45.1 92.55 62.7 82.39 45.1 102.72 45.1"/><polygon class="cls-1" points="48.45 56.85 41.66 56.85 58.62 86.22 51.84 97.97 21.31 45.1 55.23 45.1 72.19 74.47 75.58 68.6 62.01 45.1 75.58 45.1 82.37 56.85 89.15 68.6 72.19 97.97 48.45 56.85"/></svg>